<?xml version="1.0" standalone="no"?>
<!DOCTYPE svg PUBLIC "-//W3C//DTD SVG 20010904//EN"
 "http://www.w3.org/TR/2001/REC-SVG-20010904/DTD/svg10.dtd">
<svg version="1.0" xmlns="http://www.w3.org/2000/svg"
 width="512.000000pt" height="512.000000pt" viewBox="0 0 512.000000 512.000000"
 preserveAspectRatio="xMidYMid meet">
<metadata>
Created by potrace 1.14, written by Peter Selinger 2001-2017
</metadata>
<g transform="translate(0.000000,512.000000) scale(0.100000,-0.100000)"
fill="#000000" stroke="none">
<path d="M2469 5096 c-103 -27 -208 -119 -257 -224 -24 -50 -27 -70 -27 -157
0 -92 3 -106 32 -167 39 -82 96 -141 188 -194 81 -46 113 -93 122 -177 l5 -53
-60 -22 c-37 -14 -76 -38 -102 -63 -153 -149 -113 -395 80 -494 51 -26 165
-32 228 -11 64 22 135 84 170 150 23 44 27 63 27 136 0 73 -4 92 -27 136 -34
65 -90 114 -161 144 -55 23 -57 25 -57 60 0 57 28 127 63 156 18 14 64 47 103
74 79 54 131 122 159 208 25 77 17 208 -17 283 -80 174 -280 266 -469 215z"/>
<path d="M1915 3317 c-21 -12 -53 -42 -70 -65 -60 -86 -33 -216 58 -279 33
-23 53 -28 130 -33 101 -7 152 -27 200 -78 l28 -29 -30 -48 c-17 -27 -37 -80
-47 -123 -22 -99 -8 -189 42 -282 l36 -64 -34 -28 c-61 -51 -114 -71 -199 -74
-64 -2 -88 -7 -124 -28 -89 -53 -121 -166 -74 -263 34 -71 61 -83 177 -83 92
0 103 2 130 25 43 36 64 89 68 166 3 80 32 154 79 199 l34 33 38 -25 c130 -85
297 -87 427 -7 l49 30 24 -28 c13 -15 35 -50 50 -78 22 -43 26 -61 24 -127 -1
-60 3 -87 18 -115 36 -72 42 -74 192 -71 l133 3 29 47 c60 96 29 227 -67 283
-34 20 -56 25 -108 25 -84 0 -146 22 -202 71 l-45 40 30 41 c16 23 39 73 51
111 57 190 -39 402 -222 485 -116 53 -294 37 -387 -34 l-34 -26 -23 21 c-13
12 -36 45 -52 74 -24 44 -28 62 -27 117 4 115 -28 180 -108 220 -54 28 -142
27 -194 -3z"/>
<path d="M300 2942 c-232 -77 -343 -330 -241 -548 139 -296 570 -304 713 -12
42 85 90 118 191 133 l47 7 0 44 0 44 -39 0 c-90 0 -150 39 -190 124 -38 78
-110 147 -197 188 -85 40 -200 48 -284 20z"/>
<path d="M4658 2949 c-113 -16 -234 -103 -284 -205 -42 -86 -92 -121 -195
-138 l-37 -7 -18 58 c-14 45 -31 71 -73 114 -65 65 -124 89 -216 89 -122 0
-219 -60 -272 -168 -23 -47 -28 -69 -27 -132 1 -164 114 -286 273 -298 79 -5
130 7 192 47 58 36 97 87 120 154 l18 52 48 -3 c26 -1 68 -12 93 -25 37 -18
52 -34 83 -92 49 -91 106 -148 187 -188 61 -30 71 -32 175 -32 101 0 115 2
170 29 76 38 143 105 180 180 23 47 30 76 33 144 6 109 -10 176 -58 250 -84
131 -229 194 -392 171z"/>
<path d="M980 906 l0 -486 110 0 110 0 0 170 0 170 123 0 c205 1 310 25 400
94 81 62 116 195 82 312 -22 77 -101 158 -190 194 -58 24 -70 24 -347 28
l-288 3 0 -485z m529 299 c49 -29 73 -67 79 -124 3 -39 0 -57 -17 -84 -34 -56
-80 -70 -234 -71 l-132 -1 -3 50 c-2 28 -1 97 3 153 l7 104 132 -4 c109 -2
137 -6 165 -23z"/>
<path d="M1980 905 l0 -485 110 0 110 0 0 178 c0 97 -5 253 -10 346 -6 93 -8
171 -6 173 4 4 30 -59 196 -469 l92 -228 82 0 82 0 124 308 c138 342 160 395
165 390 1 -2 -1 -70 -5 -153 -5 -82 -11 -239 -15 -347 l-8 -198 117 0 116 0 0
485 0 485 -148 0 -148 0 -139 -347 -139 -348 -17 40 c-10 22 -73 178 -141 347
l-123 308 -147 0 -148 0 0 -485z"/>
<path d="M3322 1023 l3 -368 28 -57 c34 -69 80 -111 167 -152 64 -30 68 -31
215 -31 123 0 159 3 201 19 104 38 189 124 214 216 6 20 10 188 10 388 l0 352
-115 0 -115 0 3 -342 c2 -383 0 -399 -61 -446 -31 -23 -46 -27 -116 -30 -69
-3 -88 0 -125 20 -81 42 -81 42 -81 445 l0 353 -115 0 -116 0 3 -367z"/>
</g>
</svg>
